<svg id="Camada_1" data-name="Camada 1" xmlns="http://www.w3.org/2000/svg" viewBox="0 0 1000 1000"><defs><style>.cls-1{fill:#fff;}</style></defs><title>favico</title><circle class="cls-1" cx="500" cy="500" r="458"/><circle cx="500" cy="500" r="420"/><path class="cls-1" d="M745,724.58c0,2.92-.49,4.38-1.46,4.38H613.75Q597.7,729,554,671T448.23,508.75a144.24,144.24,0,0,1-16.77.73q-28.44,0-40.11-.73V669.9q0,22.61,3.65,32.81a21.82,21.82,0,0,0,14.22,13.85q10.56,3.66,33.91,3.65c1,0,1.45,1.46,1.45,4.37s-.49,4.38-1.45,4.38q-24.08,0-37.92-.73l-55.42-.73-53.23.73q-14.6.74-39.37.73-2.19,0-2.19-4.38t2.19-4.37q23.32,0,33.9-3.65a22.9,22.9,0,0,0,14.59-14.22q4-10.56,4-32.44V332.29q0-21.87-3.65-32.08T291.46,286q-10.93-4-33.54-4c-1,0-1.46-1.46-1.46-4.38s.48-4.37,1.46-4.37l38.64.73q33.54,1.47,53.23,1.46,24.78,0,51.77-2.19,9.46-.72,23.7-1.46T457,271q66.34,0,102.81,24.43t36.46,68.18q0,40.11-21.88,72.55T516,488.33q58.34,87.51,97.71,137.09t70,72.18q30.63,22.62,59.79,22.61C744.51,720.21,745,721.67,745,724.58ZM433.65,491.25q42.27,0,60.88-23.7t18.6-76.2q0-59.78-17.51-82.39t-50.31-22.61q-29.16,0-41.56,10.94t-12.4,36.46V488.33Q408.85,491.26,433.65,491.25Z"/><circle class="cls-1" cx="696.25" cy="500" r="48.68"/></svg>