<?xml version="1.0" encoding="utf-8"?>
<!-- Generator: Adobe Illustrator 23.0.1, SVG Export Plug-In . SVG Version: 6.00 Build 0)  -->
<svg version="1.1" id="Camada_1" xmlns="http://www.w3.org/2000/svg" xmlns:xlink="http://www.w3.org/1999/xlink" x="0px" y="0px"
	 viewBox="0 0 251 126" style="enable-background:new 0 0 251 126;" xml:space="preserve">
<g>
	<g>
		<path d="M183.9,47.1h-4c-6.8-23.6-28.6-40.9-54.4-40.9S77.9,23.6,71.1,47.1h-4C74,21.4,97.5,2.4,125.5,2.4S176.9,21.4,183.9,47.1z
			"/>
	</g>
	<g>
		<path d="M183.9,78.9c-7,25.8-30.5,44.7-58.5,44.7s-51.3-19-58.4-44.7h4c6.8,23.6,28.6,40.9,54.4,40.9s47.6-17.3,54.4-40.9H183.9z"
			/>
	</g>
</g>
<g>
	<path d="M59.4,70.7l6.4-18.1H70l6.4,18.1H73l-1.3-3.9h-7.4l-1.3,3.9H59.4z M65.1,63.9h5.5l-2.8-8.1L65.1,63.9z"/>
	<path d="M78.8,70.7V52.6h7.8c1.8,0,3.2,0.5,4.2,1.4c1.1,0.9,1.6,2.2,1.6,3.7c0,0.6-0.1,1.2-0.4,1.8c-0.2,0.6-0.6,1.1-1.1,1.5
		c0.8,0.5,1.4,1.2,1.8,1.9c0.3,0.7,0.5,1.5,0.5,2.3c0,1.7-0.6,3.1-1.8,4.1c-1.2,1-2.8,1.5-4.8,1.5H78.8z M82.1,59.6h4.6
		c0.7,0,1.3-0.2,1.7-0.6c0.4-0.4,0.6-0.9,0.6-1.6c0-0.6-0.2-1.1-0.6-1.5c-0.4-0.4-1-0.6-1.7-0.6h-4.6V59.6z M82.1,67.9h4.8
		c0.9,0,1.6-0.2,2.1-0.7c0.5-0.5,0.8-1.1,0.8-1.9c0-0.8-0.3-1.5-0.8-2c-0.5-0.5-1.2-0.7-2.1-0.7h-4.8V67.9z"/>
	<path d="M105.1,71c-1.3,0-2.6-0.2-3.8-0.7c-1.2-0.5-2.2-1.1-3-2c-0.9-0.8-1.5-1.8-2-3c-0.5-1.1-0.7-2.4-0.7-3.7s0.2-2.6,0.7-3.7
		c0.5-1.1,1.2-2.1,2-3c0.9-0.8,1.9-1.5,3-2c1.2-0.5,2.4-0.7,3.8-0.7c1.3,0,2.6,0.2,3.8,0.7c1.2,0.5,2.2,1.1,3,2s1.5,1.8,2,3
		c0.5,1.1,0.7,2.4,0.7,3.7s-0.2,2.6-0.7,3.7c-0.5,1.1-1.2,2.1-2,3c-0.9,0.8-1.9,1.5-3,2C107.7,70.8,106.4,71,105.1,71z M105.1,68
		c1.2,0,2.3-0.3,3.2-0.8c0.9-0.6,1.7-1.3,2.2-2.3c0.5-1,0.8-2.1,0.8-3.3c0-1.2-0.3-2.3-0.8-3.3c-0.5-1-1.3-1.7-2.2-2.3
		c-1-0.6-2-0.8-3.2-0.8s-2.3,0.3-3.2,0.8c-0.9,0.6-1.7,1.3-2.3,2.3c-0.6,1-0.8,2.1-0.8,3.3c0,1.2,0.3,2.3,0.8,3.3
		c0.6,1,1.3,1.7,2.3,2.3C102.8,67.7,103.9,68,105.1,68z"/>
	<path d="M129,52.6h3.3v11.6c0,1.3-0.3,2.5-0.9,3.5c-0.6,1-1.5,1.8-2.5,2.4S126.5,71,125,71c-1.5,0-2.7-0.3-3.8-0.9
		c-1.1-0.6-1.9-1.4-2.5-2.4c-0.6-1-0.9-2.2-0.9-3.5V52.6h3.3v11.6c0,1.2,0.4,2.1,1.1,2.8c0.7,0.7,1.7,1.1,2.9,1.1
		c1.2,0,2.1-0.4,2.9-1.1c0.7-0.7,1.1-1.7,1.1-2.8V52.6z"/>
	<path d="M139.8,70.7V55.4H135v-2.8h12.9v2.8H143v15.3H139.8z"/>
	<path d="M171.6,52.6h3.1v18.1h-3.3V58.3l-5.7,7.5h-0.4l-5.7-7.7v12.6h-3.3V52.6h3.1l6.1,8.1L171.6,52.6z"/>
	<path d="M178.5,70.7V52.6h12.3v2.8h-9v4.8h8.5V63h-8.5v4.8h9l0,2.8H178.5z"/>
</g>
</svg>
