<?xml version="1.0" encoding="utf-8"?>
<!-- Generator: Adobe Illustrator 23.0.1, SVG Export Plug-In . SVG Version: 6.00 Build 0)  -->
<svg version="1.1" id="Camada_1" xmlns="http://www.w3.org/2000/svg" xmlns:xlink="http://www.w3.org/1999/xlink" x="0px" y="0px"
	 viewBox="0 0 644.2 602" style="enable-background:new 0 0 644.2 602;" xml:space="preserve">
<title>Prancheta 1 cópia 3</title>
<path d="M644.2,596.3c0,3.8-0.7,5.8-1.9,5.8H471.7c-14.1,0-40.3-25.4-78.6-76.2c-38.3-50.8-84.7-121.9-139-213.3
	c-7.3,0.8-14.7,1.1-22,1c-24.9,0-42.5-0.3-52.7-1v211.9c0,19.8,1.6,34.2,4.8,43.1s9.4,15,18.7,18.2c9.3,3.2,24.1,4.8,44.6,4.8
	c1.3,0,1.9,1.9,1.9,5.8s-0.6,5.8-1.9,5.8c-21.1,0-37.7-0.3-49.9-1l-72.9-1l-70,1c-12.8,0.7-30.1,1-51.8,1C1,602,0,600.1,0,596.3
	s1-5.8,2.9-5.8c20.4,0,35.3-1.6,44.6-4.8c9-2.9,16.1-9.8,19.2-18.7c3.5-9.3,5.3-23.5,5.3-42.7V80.5c0-19.2-1.6-33.2-4.8-42.2
	c-3.2-9-9.6-15.2-19.2-18.7c-9.6-3.5-24.3-5.3-44.1-5.3C2.6,14.4,2,12.5,2,8.6s0.6-5.8,1.9-5.8l50.8,1c29.4,1.3,52.7,1.9,70,1.9
	c21.7,0,44.4-1,68.1-2.9c8.3-0.6,18.7-1.3,31.1-1.9s26.4-1,41.7-1c58.1,0,103.2,10.7,135.2,32.1s47.9,51.3,47.9,89.6
	c0,35.1-9.6,66.9-28.8,95.4s-44.7,51.3-76.7,68.5c51.1,76.7,93.9,136.7,128.5,180.2c34.5,43.5,65.2,75.1,92,94.9
	c26.8,19.8,53,29.7,78.6,29.7C643.6,590.5,644.2,592.4,644.2,596.3z M234.9,289.5c37.1,0,63.7-10.4,80-31.2
	c16.3-20.8,24.4-54.2,24.5-100.2c0-52.4-7.7-88.5-23-108.3C301,30,279,20.1,250.2,20.1c-25.6,0-43.8,4.8-54.6,14.4
	c-10.9,9.6-16.3,25.6-16.3,47.9v203.2C194.6,288.2,213.2,289.5,234.9,289.5z"/>
<circle cx="580.1" cy="301" r="64"/>
</svg>
