<?xml version="1.0" encoding="utf-8"?>
<!-- Generator: Adobe Illustrator 23.0.1, SVG Export Plug-In . SVG Version: 6.00 Build 0)  -->
<svg version="1.1" id="Camada_1" xmlns="http://www.w3.org/2000/svg" xmlns:xlink="http://www.w3.org/1999/xlink" x="0px" y="0px"
	 viewBox="0 0 251 126" style="enable-background:new 0 0 251 126;" xml:space="preserve">
<style type="text/css">
	.st0{display:none;}
	.st1{display:inline;}
	.st2{font-family:'PlusJakartaText-Bold';}
	.st3{font-size:22.8865px;}
</style>
<g>
	<g>
		<path d="M183.9,47.1h-4c-6.8-23.6-28.6-40.9-54.4-40.9S77.9,23.6,71.1,47.1h-4C74,21.4,97.5,2.4,125.5,2.4S176.9,21.4,183.9,47.1z
			"/>
	</g>
	<g>
		<path d="M183.9,78.9c-7,25.8-30.5,44.7-58.5,44.7s-51.3-19-58.4-44.7h4c6.8,23.6,28.6,40.9,54.4,40.9s47.6-17.3,54.4-40.9H183.9z"
			/>
	</g>
</g>
<g class="st0">
	<path class="st1" d="M18.5,70.5c-1.2,0-2.2-0.2-3.2-0.6s-1.8-1-2.5-1.6c-0.7-0.7-1.2-1.5-1.5-2.5l2.6-1.2c0.4,1.1,1.1,1.8,1.8,2.4
		c0.9,0.6,1.7,0.9,2.7,0.9s1.7-0.2,2.3-0.6c0.6-0.4,0.9-0.9,0.9-1.5s-0.2-1.1-0.6-1.3s-0.9-0.6-1.4-0.8l-3.5-1.1
		c-1.4-0.4-2.5-1.1-3.2-1.8c-0.7-0.9-1.1-1.8-1.1-2.9c0-1,0.3-1.8,0.8-2.6s1.2-1.3,2.1-1.7s1.9-0.7,3.2-0.7c1.1,0,2.1,0.2,3,0.6
		c0.9,0.4,1.6,0.9,2.3,1.5c0.7,0.7,1.1,1.3,1.3,2.2l-2.6,1.2c-0.3-0.9-0.8-1.5-1.5-2s-1.5-0.8-2.5-0.8c-0.9,0-1.6,0.2-2.1,0.6
		c-0.6,0.4-0.8,0.9-0.8,1.5c0,0.5,0.2,1,0.6,1.2c0.4,0.4,0.9,0.7,1.5,0.8l3.3,1c1.4,0.5,2.5,1.1,3.3,1.8c0.7,0.8,1.1,1.7,1.1,2.9
		c0,1-0.3,1.9-0.8,2.6s-1.2,1.3-2.2,1.7C20.8,70.3,19.7,70.5,18.5,70.5z"/>
	<path class="st1" d="M35.5,70.5c-1.2,0-2.3-0.2-3.4-0.7c-1.1-0.5-1.9-1.1-2.7-1.8c-0.8-0.8-1.3-1.7-1.8-2.8
		c-0.5-1.1-0.7-2.2-0.7-3.5c0-1.2,0.2-2.4,0.7-3.5c0.4-1.1,1.1-2,1.8-2.8c0.8-0.8,1.7-1.4,2.7-1.8c1.1-0.5,2.2-0.7,3.4-0.7
		s2.3,0.2,3.3,0.6c1,0.4,1.8,1,2.5,1.6c0.7,0.7,1.2,1.4,1.4,2.2L40,58.8c-0.4-0.9-1-1.6-1.7-2.2c-0.8-0.6-1.7-0.9-2.9-0.9
		c-1.1,0-2,0.3-2.9,0.8c-0.9,0.5-1.4,1.2-1.9,2.1s-0.7,1.9-0.7,3.2c0,1.2,0.2,2.2,0.7,3.2c0.5,0.9,1.2,1.6,1.9,2.1
		c0.8,0.5,1.8,0.8,2.9,0.8c1.2,0,2-0.3,2.9-0.9c0.8-0.6,1.3-1.2,1.7-2.2l2.7,1.3c-0.3,0.8-0.8,1.5-1.4,2.2s-1.5,1.2-2.5,1.6
		C37.8,70.3,36.7,70.5,35.5,70.5z"/>
	<path class="st1" d="M45.6,70.2v-17h6.7c1.2,0,2.2,0.2,3.2,0.7c0.9,0.4,1.6,1.1,2.1,1.8c0.5,0.8,0.8,1.7,0.8,2.9s-0.3,2.2-0.9,3
		c-0.6,0.9-1.3,1.4-2.3,1.8l3.9,6.8h-3.5L52.1,64h-3.5v6.3L45.6,70.2L45.6,70.2z M48.7,61.3h3.7c0.9,0,1.5-0.3,2.1-0.8
		s0.9-1.2,0.9-1.9s-0.3-1.4-0.9-1.9c-0.6-0.5-1.2-0.8-2.1-0.8h-3.7V61.3z"/>
	<path class="st1" d="M69.8,70.5c-1.2,0-2.4-0.2-3.6-0.7c-1.1-0.5-2-1.1-2.9-1.8c-0.8-0.8-1.4-1.7-1.9-2.8c-0.5-1.1-0.7-2.2-0.7-3.5
		c0-1.2,0.2-2.4,0.7-3.5s1.1-2,1.9-2.8s1.7-1.4,2.9-1.8c1.1-0.5,2.3-0.7,3.6-0.7c1.2,0,2.4,0.2,3.6,0.7c1.1,0.5,2,1.1,2.9,1.8
		c0.9,0.8,1.4,1.7,1.9,2.8s0.7,2.2,0.7,3.5c0,1.2-0.2,2.4-0.7,3.5s-1.1,2-1.9,2.8c-0.9,0.8-1.7,1.4-2.9,1.8
		C72.3,70.3,71.1,70.5,69.8,70.5z M69.8,67.7c1.2,0,2.1-0.3,3-0.8s1.6-1.2,2.1-2.1s0.8-1.9,0.8-3.1c0-1.2-0.3-2.2-0.8-3.1
		s-1.2-1.6-2.1-2.1s-1.9-0.8-3-0.8c-1.2,0-2.1,0.3-3,0.8s-1.6,1.2-2.1,2.1s-0.7,2-0.7,3.2s0.3,2.2,0.8,3.1s1.2,1.6,2.1,2.1
		C67.7,67.4,68.8,67.7,69.8,67.7z"/>
	<path class="st1" d="M81.7,70.2v-17h3.1v14.3h7.8v2.7H81.7z"/>
	<path class="st1" d="M95.2,70.2v-17h3.1v14.3h7.8v2.7H95.2z"/>
	<path class="st1" d="M114.2,70.2v-17h11.6v2.7h-8.6v4.8h7.6v2.7h-7.6v6.8H114.2z"/>
	<path class="st1" d="M136.6,70.5c-1.2,0-2.4-0.2-3.6-0.7c-1.2-0.5-2-1.1-2.9-1.8c-0.8-0.8-1.4-1.7-1.9-2.8
		c-0.5-1.1-0.7-2.2-0.7-3.5c0-1.2,0.2-2.4,0.7-3.5s1.1-2,1.9-2.8c0.8-0.8,1.7-1.4,2.9-1.8c1.1-0.5,2.3-0.7,3.6-0.7
		c1.2,0,2.4,0.2,3.6,0.7c1.2,0.5,2,1.1,2.9,1.8c0.9,0.8,1.4,1.7,1.9,2.8s0.7,2.2,0.7,3.5c0,1.2-0.2,2.4-0.7,3.5s-1.1,2-1.9,2.8
		c-0.9,0.8-1.7,1.4-2.9,1.8C139,70.2,137.9,70.5,136.6,70.5z M136.6,67.7c1.2,0,2.1-0.3,3-0.8s1.6-1.2,2.1-2.1s0.8-1.9,0.8-3.1
		c0-1.2-0.3-2.2-0.8-3.1s-1.2-1.6-2.1-2.1c-0.9-0.5-1.9-0.8-3-0.8s-2.1,0.3-3,0.8s-1.6,1.2-2.1,2.1s-0.8,1.9-0.8,3.1
		c0,1.2,0.3,2.2,0.8,3.1c0.5,0.9,1.2,1.6,2.1,2.1S135.5,67.7,136.6,67.7z"/>
	<path class="st1" d="M148.6,70.2v-17h6.7c1.2,0,2.2,0.2,3.2,0.7c1,0.4,1.6,1.1,2.1,1.8s0.8,1.7,0.8,2.9s-0.3,2.2-0.9,3
		c-0.6,0.9-1.3,1.4-2.3,1.8l3.9,6.8h-3.5l-3.7-6.3h-3.5v6.3H148.6z M151.6,61.3h3.7c0.9,0,1.5-0.3,2.1-0.8s0.9-1.2,0.9-1.9
		s-0.3-1.4-0.9-1.9c-0.6-0.5-1.2-0.8-2.1-0.8h-3.7V61.3z"/>
	<path class="st1" d="M184.7,53.2h2.9v17h-3V58.6l-5.4,7h-0.4l-5.4-7.2v11.8h-3.1v-17h2.9l5.7,7.6L184.7,53.2z"/>
	<path class="st1" d="M199.5,70.5c-1.2,0-2.4-0.2-3.6-0.7c-1.1-0.5-2-1.1-2.9-1.8c-0.9-0.8-1.4-1.7-1.9-2.8
		c-0.5-1.1-0.7-2.2-0.7-3.5c0-1.2,0.2-2.4,0.7-3.5s1.1-2,1.9-2.8c0.8-0.8,1.7-1.4,2.9-1.8c1.1-0.5,2.3-0.7,3.6-0.7s2.4,0.2,3.6,0.7
		c1.1,0.5,2,1.1,2.9,1.8s1.4,1.7,1.9,2.8s0.7,2.2,0.7,3.5c0,1.2-0.2,2.4-0.7,3.5s-1.1,2-1.9,2.8c-0.9,0.8-1.7,1.4-2.9,1.8
		C202,70.3,200.9,70.5,199.5,70.5z M199.5,67.7c1.2,0,2.1-0.3,3-0.8s1.6-1.2,2.1-2.1s0.8-1.9,0.8-3.1c0-1.2-0.3-2.2-0.8-3.1
		c-0.5-0.9-1.2-1.6-2.1-2.1c-0.9-0.5-1.9-0.8-3-0.8c-1.2,0-2.1,0.3-3,0.8s-1.6,1.2-2.1,2.1s-0.8,1.9-0.8,3.1c0,1.2,0.3,2.2,0.8,3.1
		c0.5,0.9,1.2,1.6,2.1,2.1S198.5,67.7,199.5,67.7z"/>
	<path class="st1" d="M211.4,70.2v-17h6.7c1.2,0,2.2,0.2,3.2,0.7c1,0.4,1.6,1.1,2.1,1.8s0.8,1.7,0.8,2.9s-0.3,2.2-0.9,3
		c-0.6,0.9-1.3,1.4-2.3,1.8l3.9,6.8h-3.5l-3.7-6.3h-3.5v6.3H211.4z M214.5,61.3h3.7c0.9,0,1.5-0.3,2.1-0.8s0.9-1.2,0.9-1.9
		s-0.3-1.4-0.9-1.9c-0.6-0.5-1.2-0.8-2.1-0.8h-3.7V61.3z"/>
	<path class="st1" d="M227.8,70.2v-17h11.4v2.7h-8.5v4.5h8V63h-8v4.5h8.5v2.7H227.8z"/>
</g>
<text transform="matrix(1 0 0 1 56.0059 70.1514)" class="st2 st3">THANK YOU</text>
</svg>
